<svg width="164" height="29" viewBox="0 0 164 29" fill="none" xmlns="http://www.w3.org/2000/svg">
<path d="M0 8.21092H4.12131V10.0974H4.18221C4.32433 9.83368 4.50704 9.56998 4.75067 9.286C4.99429 9.0223 5.29882 8.77889 5.64396 8.57604C5.98909 8.3732 6.37483 8.19064 6.82147 8.06893C7.26812 7.92694 7.73506 7.86609 8.26292 7.86609C9.23741 7.86609 10.1104 8.06893 10.8616 8.47462C11.6127 8.88031 12.1812 9.50913 12.5669 10.3611C13.0542 9.46856 13.6632 8.81946 14.3738 8.43405C15.0844 8.04865 15.9574 7.86609 16.9725 7.86609C17.9064 7.86609 18.6981 8.02836 19.3275 8.33263C19.9772 8.65718 20.4644 9.08315 20.8502 9.63083C21.2156 10.1785 21.4998 10.8073 21.6622 11.5579C21.8247 12.2881 21.9059 13.0792 21.9059 13.9108V22.126H17.6018V14.0326C17.6018 13.3835 17.4597 12.8155 17.1958 12.3489C16.9116 11.8824 16.4243 11.639 15.7138 11.639C15.2265 11.639 14.8002 11.7201 14.4753 11.8824C14.1505 12.0447 13.8663 12.2678 13.6632 12.5518C13.4602 12.8358 13.3181 13.1806 13.2369 13.5457C13.1557 13.9311 13.1151 14.3368 13.1151 14.7425V22.1058H8.79077V14.7628C8.79077 14.5194 8.79077 14.2151 8.77047 13.85C8.75016 13.4849 8.68926 13.14 8.56745 12.8155C8.44563 12.4909 8.26292 12.207 7.99899 11.9838C7.73506 11.7607 7.36963 11.639 6.86208 11.639C6.31392 11.639 5.86728 11.7404 5.52215 11.9433C5.17701 12.1461 4.91308 12.4098 4.73037 12.7546C4.54765 13.0792 4.42584 13.4646 4.36493 13.8906C4.30402 14.3165 4.28372 14.7425 4.28372 15.209V22.1463H0V8.21092Z" fill="white"/>
<path d="M23.9566 15.1685C23.9566 14.0528 24.1596 13.0589 24.5657 12.1664C24.9717 11.2739 25.5199 10.5031 26.2101 9.85396C26.9004 9.20486 27.7328 8.71803 28.6667 8.3732C29.6209 8.02836 30.6157 7.86609 31.6917 7.86609C32.7677 7.86609 33.7625 8.02836 34.7167 8.3732C35.6709 8.71803 36.4829 9.20486 37.1732 9.85396C37.8635 10.5031 38.4116 11.2536 38.8177 12.1664C39.2237 13.0589 39.4267 14.0731 39.4267 15.1685C39.4267 16.2841 39.2237 17.2781 38.8177 18.1706C38.4116 19.0631 37.8635 19.8339 37.1732 20.483C36.4829 21.1321 35.6506 21.6189 34.7167 21.9638C33.7625 22.3086 32.7677 22.4709 31.6917 22.4709C30.6157 22.4709 29.6209 22.3086 28.6667 21.9638C27.7125 21.6189 26.9004 21.1321 26.2101 20.483C25.5199 19.8339 24.9717 19.0834 24.5657 18.1706C24.1596 17.2781 23.9566 16.2841 23.9566 15.1685ZM28.2606 15.1685C28.2606 16.2233 28.5652 17.0752 29.1539 17.7243C29.763 18.3734 30.5954 18.698 31.6917 18.698C32.788 18.698 33.6204 18.3734 34.2294 17.7243C34.8385 17.0752 35.1227 16.2233 35.1227 15.1685C35.1227 14.1137 34.8182 13.2617 34.2294 12.6126C33.6204 11.9635 32.788 11.639 31.6917 11.639C30.5954 11.639 29.763 11.9635 29.1539 12.6126C28.5449 13.2617 28.2606 14.1137 28.2606 15.1685Z" fill="white"/>
<path d="M41.9139 8.21092H46.2179V10.4422H46.2788C46.7457 9.59026 47.2736 8.94116 47.9029 8.51519C48.5323 8.08922 49.3241 7.86609 50.2783 7.86609C50.5219 7.86609 50.7655 7.86609 51.0295 7.88637C51.2731 7.90666 51.5167 7.94723 51.7197 8.00808V11.5781C51.7197 11.7201 51.5979 11.8418 51.4355 11.8216L50.8061 11.7201C50.5016 11.6796 50.1971 11.639 49.8722 11.639C49.0602 11.639 48.4105 11.7607 47.9232 11.9838C47.436 12.207 47.0706 12.5315 46.8269 12.9372C46.563 13.3429 46.4006 13.8297 46.3194 14.418C46.2382 14.9859 46.1976 15.6147 46.1976 16.3044V22.126H41.8936V8.21092H41.9139Z" fill="white"/>
<path d="M53.9428 8.21153H57.9017V10.0371H57.9626C58.125 9.79372 58.3686 9.53002 58.6326 9.28661C58.9168 9.02291 59.2416 8.79978 59.6071 8.57665C59.9725 8.37381 60.3786 8.19125 60.8252 8.06954C61.2718 7.92755 61.7388 7.8667 62.226 7.8667C63.2614 7.8667 64.1953 8.04926 65.0277 8.39409C65.8601 8.73893 66.591 9.24604 67.2 9.87486C67.8091 10.524 68.2557 11.2745 68.5806 12.1467C68.9054 13.0189 69.0678 13.9926 69.0678 15.0474C69.0678 16.021 68.9257 16.9541 68.6212 17.8466C68.3166 18.7391 67.9106 19.5302 67.3624 20.1996C66.8143 20.8893 66.1443 21.437 65.3728 21.8427C64.5811 22.2484 63.7081 22.4512 62.7133 22.4512C61.82 22.4512 60.9876 22.3092 60.2161 22.0455C59.4447 21.7615 58.8153 21.295 58.3077 20.6256H58.2468V28.6379H53.9428V8.21153ZM57.8814 15.1691C57.8814 16.2239 58.1859 17.0758 58.7747 17.7249C59.3838 18.374 60.2161 18.6986 61.3124 18.6986C62.4087 18.6986 63.2411 18.374 63.8502 17.7249C64.4593 17.0758 64.7435 16.2239 64.7435 15.1691C64.7435 14.1143 64.439 13.2624 63.8502 12.6133C63.2411 11.9642 62.4087 11.6396 61.3124 11.6396C60.2161 11.6396 59.3838 11.9642 58.7747 12.6133C58.1859 13.2624 57.8814 14.1143 57.8814 15.1691Z" fill="white"/>
<path d="M75.8627 0.48291V10.0977H75.9236C76.0251 9.83403 76.1875 9.57033 76.4108 9.28635C76.6342 9.02265 76.9184 8.77924 77.2432 8.57639C77.568 8.37355 77.9538 8.19099 78.3801 8.06928C78.8268 7.92729 79.2937 7.86644 79.8216 7.86644C80.9179 7.86644 81.7909 8.02871 82.4608 8.37355C83.1308 8.6981 83.6587 9.16464 84.0241 9.75289C84.3895 10.3411 84.6534 11.0511 84.7753 11.8422C84.9174 12.6536 84.9783 13.5055 84.9783 14.4386V22.1061H80.6743V15.3108C80.6743 14.9051 80.654 14.4994 80.6336 14.0735C80.6133 13.6475 80.5118 13.2418 80.3697 12.8767C80.2276 12.5116 80.0043 12.2276 79.7201 11.9842C79.4155 11.761 78.9892 11.6393 78.441 11.6393C77.8929 11.6393 77.4462 11.7408 77.1011 11.9436C76.756 12.1464 76.492 12.4101 76.3093 12.755C76.1266 13.0795 76.0048 13.4649 75.9439 13.8909C75.883 14.3169 75.8627 14.7429 75.8627 15.2094V22.1467H71.5587V0.48291H73.7107H75.8627Z" fill="white"/>
<path d="M117.838 0.483398H120.529H122.142V9.69252H122.203C122.69 9.02314 123.34 8.5566 124.111 8.27261C124.883 7.98863 125.715 7.86693 126.608 7.86693C127.603 7.86693 128.496 8.06977 129.268 8.47546C130.06 8.88115 130.709 9.42883 131.258 10.1185C131.806 10.8082 132.232 11.5993 132.516 12.4715C132.821 13.364 132.963 14.2971 132.963 15.2707C132.963 16.3255 132.8 17.2789 132.476 18.1714C132.151 19.0436 131.684 19.8144 131.095 20.4433C130.486 21.0924 129.775 21.5792 128.923 21.924C128.09 22.2689 127.136 22.4514 126.121 22.4514C125.634 22.4514 125.147 22.3906 124.72 22.2486C124.274 22.1066 123.868 21.9443 123.502 21.7415C123.137 21.5386 122.812 21.2952 122.528 21.0315C122.243 20.7678 122.02 20.5244 121.858 20.281H121.797V22.1066H117.838V0.483398ZM121.776 15.1693C121.776 16.2241 122.081 17.0761 122.67 17.7252C123.279 18.3743 124.111 18.6988 125.208 18.6988C126.304 18.6988 127.136 18.3743 127.745 17.7252C128.354 17.0761 128.639 16.2241 128.639 15.1693C128.639 14.1145 128.334 13.2626 127.745 12.6135C127.136 11.9644 126.304 11.6398 125.208 11.6398C124.111 11.6398 123.279 11.9644 122.67 12.6135C122.081 13.2626 121.776 14.1145 121.776 15.1693Z" fill="white"/>
<path d="M139.489 22.126V8.21094H135.185V22.126H139.489Z" fill="white"/>
<path d="M139.489 6.29872V4.10986H135.185V6.29872H137.337H139.489Z" fill="white"/>
<path d="M142.405 8.211V4.09326H146.709V8.211H150.485V11.6391H146.709V16.2842C146.709 16.6696 146.729 17.0144 146.77 17.339C146.81 17.6635 146.892 17.9272 147.034 18.1504C147.176 18.3735 147.379 18.5561 147.643 18.6778C147.927 18.7995 148.292 18.8603 148.739 18.8603C148.962 18.8603 149.267 18.84 149.632 18.7792C149.998 18.7386 150.282 18.6169 150.485 18.4546V22.0247C149.998 22.187 149.51 22.3087 149.003 22.3695C148.495 22.4304 147.988 22.4507 147.48 22.4507C146.749 22.4507 146.079 22.3695 145.47 22.2275C144.861 22.0653 144.333 21.8218 143.867 21.4973C143.4 21.1727 143.054 20.7265 142.791 20.1991C142.527 19.6717 142.405 19.0226 142.405 18.2518V11.6391" fill="white"/>
<path d="M160.833 12.3088C160.203 11.5177 159.371 11.1323 158.335 11.1323C157.97 11.1323 157.625 11.2134 157.28 11.396C156.935 11.5582 156.772 11.8625 156.772 12.2885C156.772 12.6333 156.955 12.8767 157.3 13.039C157.645 13.2013 158.112 13.3433 158.64 13.465C159.188 13.5867 159.777 13.7287 160.386 13.8707C161.015 14.0127 161.584 14.2358 162.132 14.5401C162.68 14.8443 163.127 15.2703 163.472 15.7774C163.817 16.3048 164 16.9945 164 17.887C164 18.7795 163.797 19.53 163.411 20.098C163.025 20.6862 162.518 21.1528 161.909 21.4976C161.3 21.8424 160.609 22.1061 159.838 22.2481C159.066 22.3901 158.315 22.4713 157.584 22.4713C156.61 22.4713 155.635 22.3293 154.641 22.0656C153.646 21.7816 152.813 21.2948 152.123 20.5848L154.722 17.6841C155.128 18.171 155.574 18.5564 156.062 18.8201C156.549 19.0838 157.117 19.2055 157.767 19.2055C158.254 19.2055 158.721 19.1243 159.107 18.9823C159.513 18.8403 159.716 18.5767 159.716 18.1912C159.716 17.8261 159.533 17.5624 159.188 17.3799C158.843 17.1973 158.376 17.0553 157.848 16.9133C157.3 16.7916 156.711 16.6496 156.102 16.5076C155.473 16.3656 154.904 16.1425 154.356 15.8585C153.808 15.5746 153.361 15.1689 153.016 14.6415C152.671 14.1141 152.488 13.4244 152.488 12.5319C152.488 11.7205 152.651 11.0106 152.996 10.4223C153.321 9.83406 153.768 9.34724 154.316 8.96183C154.864 8.57643 155.493 8.29245 156.183 8.10989C156.894 7.92733 157.605 7.84619 158.335 7.84619C159.249 7.84619 160.183 7.98818 161.117 8.25188C162.051 8.51558 162.843 9.0024 163.492 9.69207L160.833 12.3088Z" fill="white"/>
<g clip-path="url(#clip0_5_420)">
<path opacity="0.8" d="M108.963 9.22506L112.804 7.00928V20.304L101.281 26.9513V22.5198L108.963 18.0882V9.22506Z" fill="#66AEF8"/>
<path d="M89.7578 7.00928L93.5989 9.22506V18.0882L101.281 22.5198V26.9513L89.7578 20.304V7.00928Z" fill="#2959BB"/>
<path d="M97.4399 11.4406V15.8721L101.281 18.0879V13.6563L97.4399 11.4406Z" fill="white"/>
<path d="M101.282 13.6563L105.123 11.4406V15.8721L101.282 18.0879V13.6563Z" fill="#00E2D3"/>
<path d="M112.804 7.00917L101.281 0.361816L89.7578 7.00917L93.5989 9.22496L101.281 4.79339L108.963 9.22496L112.804 7.00917Z" fill="white"/>
</g>
<defs>
<clipPath id="clip0_5_420">
<rect width="23.0464" height="26.5894" fill="white" transform="translate(89.7583 0.361816)"/>
</clipPath>
</defs>
</svg>
